<svg fill="none" viewBox="0 0 24 24" role="img">
  <path stroke="#1C1D20" stroke-linecap="round" stroke-linejoin="round" stroke-width="1.5" d="M12 19v-7m.292 7.085 6.978 2.336c.547.183.82.275.99.21a.5.5 0 0 0 .3-.332c.048-.174-.07-.437-.305-.964l-7.49-16.712c-.23-.515-.346-.772-.507-.852a.5.5 0 0 0-.443 0c-.16.078-.277.335-.51.85L3.753 20.335c-.237.526-.356.79-.308.964a.5.5 0 0 0 .3.332c.168.066.442-.025.99-.207l7.052-2.34c.094-.032.14-.047.189-.054a.5.5 0 0 1 .128 0c.048.007.095.023.189.054Z"/>
</svg>
