<svg fill="none" xmlns="http://www.w3.org/2000/svg" viewBox="0 0 24 24"><path d="M14 21h-4M2.292 5.82A4.007 4.007 0 0 1 4.325 2.3m17.377 3.52a4.007 4.007 0 0 0-2.033-3.52M18 8A6 6 0 1 0 6 8c0 3.09-.78 5.206-1.65 6.605-.735 1.18-1.102 1.771-1.088 1.936.015.182.053.252.2.36.133.099.73.099 1.927.099H18.61c1.197 0 1.795 0 1.928-.098.146-.11.185-.179.2-.361.014-.165-.354-.755-1.088-1.936C18.779 13.206 18 11.09 18 8Z" stroke="#1C1D20" stroke-width="1.5" stroke-linecap="round" stroke-linejoin="round"/></svg>