<svg width="24" height="24" viewBox="0 0 24 24" fill="none" xmlns="http://www.w3.org/2000/svg">
<path d="M10.7988 9.6L11.3988 10.05L10.7988 9.6ZM9.29882 11.6L8.69882 11.15L9.29882 11.6ZM14.6988 11.6L14.0988 12.05L14.6988 11.6ZM13.1988 9.6L13.7988 9.15V9.15L13.1988 9.6ZM19.25 12C19.25 16.0041 16.0041 19.25 12 19.25V20.75C16.8325 20.75 20.75 16.8325 20.75 12H19.25ZM12 19.25C7.99594 19.25 4.75 16.0041 4.75 12H3.25C3.25 16.8325 7.16751 20.75 12 20.75V19.25ZM4.75 12C4.75 7.99594 7.99594 4.75 12 4.75V3.25C7.16751 3.25 3.25 7.16751 3.25 12H4.75ZM12 4.75C16.0041 4.75 19.25 7.99594 19.25 12H20.75C20.75 7.16751 16.8325 3.25 12 3.25V4.75ZM5.25 20C5.25 20.6904 4.69036 21.25 4 21.25V22.75C5.51878 22.75 6.75 21.5188 6.75 20H5.25ZM4 21.25C3.30964 21.25 2.75 20.6904 2.75 20H1.25C1.25 21.5188 2.48122 22.75 4 22.75V21.25ZM2.75 20C2.75 19.3096 3.30964 18.75 4 18.75V17.25C2.48122 17.25 1.25 18.4812 1.25 20H2.75ZM4 18.75C4.69036 18.75 5.25 19.3096 5.25 20H6.75C6.75 18.4812 5.51878 17.25 4 17.25V18.75ZM21.25 20C21.25 20.6904 20.6904 21.25 20 21.25V22.75C21.5188 22.75 22.75 21.5188 22.75 20H21.25ZM20 21.25C19.3096 21.25 18.75 20.6904 18.75 20H17.25C17.25 21.5188 18.4812 22.75 20 22.75V21.25ZM18.75 20C18.75 19.3096 19.3096 18.75 20 18.75V17.25C18.4812 17.25 17.25 18.4812 17.25 20H18.75ZM20 18.75C20.6904 18.75 21.25 19.3096 21.25 20H22.75C22.75 18.4812 21.5188 17.25 20 17.25V18.75ZM5.25 4C5.25 4.69036 4.69036 5.25 4 5.25V6.75C5.51878 6.75 6.75 5.51878 6.75 4H5.25ZM4 5.25C3.30964 5.25 2.75 4.69036 2.75 4H1.25C1.25 5.51878 2.48122 6.75 4 6.75V5.25ZM2.75 4C2.75 3.30964 3.30964 2.75 4 2.75V1.25C2.48122 1.25 1.25 2.48122 1.25 4H2.75ZM4 2.75C4.69036 2.75 5.25 3.30964 5.25 4H6.75C6.75 2.48122 5.51878 1.25 4 1.25V2.75ZM21.25 4C21.25 4.69036 20.6904 5.25 20 5.25V6.75C21.5188 6.75 22.75 5.51878 22.75 4H21.25ZM20 5.25C19.3096 5.25 18.75 4.69036 18.75 4H17.25C17.25 5.51878 18.4812 6.75 20 6.75V5.25ZM18.75 4C18.75 3.30964 19.3096 2.75 20 2.75V1.25C18.4812 1.25 17.25 2.48122 17.25 4H18.75ZM20 2.75C20.6904 2.75 21.25 3.30964 21.25 4H22.75C22.75 2.48122 21.5188 1.25 20 1.25V2.75ZM10.1988 9.15L8.69882 11.15L9.89882 12.05L11.3988 10.05L10.1988 9.15ZM10.4988 14.75H13.4988V13.25H10.4988V14.75ZM15.2988 11.15L13.7988 9.15L12.5988 10.05L14.0988 12.05L15.2988 11.15ZM13.4988 14.75C15.3529 14.75 16.4113 12.6333 15.2988 11.15L14.0988 12.05C14.4696 12.5444 14.1169 13.25 13.4988 13.25V14.75ZM8.69882 11.15C7.58636 12.6333 8.64472 14.75 10.4988 14.75V13.25C9.88078 13.25 9.528 12.5444 9.89882 12.05L8.69882 11.15ZM11.3988 10.05C11.6988 9.65 12.2988 9.65 12.5988 10.05L13.7988 9.15C12.8988 7.95 11.0988 7.95 10.1988 9.15L11.3988 10.05Z" fill="#1C1D20"/>
</svg>
