<svg width="24" height="24" viewBox="0 0 24 24" fill="none" xmlns="http://www.w3.org/2000/svg">
<path d="M8.89459 12.8446L8.14459 12.842V12.8446H8.89459ZM21.7563 12.8883L21.0063 12.8857V12.8883H21.7563ZM21.7563 12.9611L22.5062 12.9753C22.5063 12.9706 22.5063 12.9658 22.5063 12.9611H21.7563ZM18.8431 19.0715L19.3834 19.5918L19.3875 19.5874L18.8431 19.0715ZM15.8353 21.5477L15.4285 20.9176C15.3991 20.9366 15.3711 20.9576 15.3446 20.9805L15.8353 21.5477ZM14.8157 21.5477L15.3063 20.9805C15.2806 20.9582 15.2533 20.9377 15.2248 20.9192L14.8157 21.5477ZM10.5842 17.5858L11.1846 17.1362L11.1798 17.1299L10.5842 17.5858ZM8.89459 12.8664H8.14459C8.14459 12.875 8.14473 12.8836 8.14503 12.8922L8.89459 12.8664ZM5.02751 4.09581L4.87657 3.36116L5.02751 4.09581ZM11.1293 2.84217L11.2803 3.57683L11.1293 2.84217ZM4.27492 15.9093L5.00958 15.7584L4.27492 15.9093ZM2.60341 7.77355L3.33806 7.62261L2.60341 7.77355ZM14.8071 5.26628L14.0724 5.41721V5.41721L14.8071 5.26628ZM7.95266 18.3334L7.80172 17.5988L7.95266 18.3334ZM9.64458 12.8471C9.65524 9.70965 12.2073 7.17488 15.3448 7.18554L15.3499 5.68555C11.384 5.67207 8.15806 8.87613 8.14459 12.842L9.64458 12.8471ZM15.3448 7.18554C18.4822 7.1962 21.017 9.74825 21.0063 12.8857L22.5063 12.8908C22.5198 8.92493 19.3157 5.69902 15.3499 5.68555L15.3448 7.18554ZM21.0063 12.8883V12.9611H22.5063V12.8883H21.0063ZM21.0065 12.9469C20.9678 14.9895 19.8179 16.9524 18.2987 18.5556L19.3875 19.5874C21.0292 17.855 22.4575 15.5501 22.5062 12.9753L21.0065 12.9469ZM18.3029 18.5513C17.4392 19.4482 16.4746 20.2423 15.4285 20.9176L16.242 22.1778C17.3853 21.4398 18.4394 20.572 19.3834 19.5918L18.3029 18.5513ZM15.3446 20.9805C15.3336 20.99 15.3173 20.99 15.3063 20.9805L14.325 22.115C14.8994 22.6119 15.7515 22.6119 16.3259 22.115L15.3446 20.9805ZM15.2248 20.9192C13.6666 19.9049 12.299 18.6244 11.1846 17.1362L9.9839 18.0353C11.2038 19.6644 12.7008 21.0661 14.4065 22.1763L15.2248 20.9192ZM11.1798 17.1299C10.2344 15.8947 9.69756 14.3953 9.64414 12.8407L8.14503 12.8922C8.20915 14.7586 8.8536 16.5586 9.98866 18.0416L11.1798 17.1299ZM9.64459 12.8664V12.8446H8.14459V12.8664H9.64459ZM16.7139 12.9292C16.7139 13.6937 16.0942 14.3134 15.3296 14.3134V15.8134C16.9226 15.8134 18.2139 14.5221 18.2139 12.9292H16.7139ZM15.3296 14.3134C14.5651 14.3134 13.9454 13.6937 13.9454 12.9292H12.4454C12.4454 14.5221 13.7367 15.8134 15.3296 15.8134V14.3134ZM13.9454 12.9292C13.9454 12.1646 14.5651 11.5449 15.3296 11.5449V10.0449C13.7367 10.0449 12.4454 11.3362 12.4454 12.9292H13.9454ZM15.3296 11.5449C16.0942 11.5449 16.7139 12.1646 16.7139 12.9292H18.2139C18.2139 11.3362 16.9226 10.0449 15.3296 10.0449V11.5449ZM5.17844 4.83047L11.2803 3.57683L10.9784 2.10752L4.87657 3.36116L5.17844 4.83047ZM5.00958 15.7584L3.33806 7.62261L1.86875 7.92449L3.54027 16.0603L5.00958 15.7584ZM14.0724 5.41721L14.3152 6.59863L15.7845 6.29676L15.5417 5.11534L14.0724 5.41721ZM10.6081 17.0222L7.80172 17.5988L8.1036 19.0681L10.9099 18.4915L10.6081 17.0222ZM3.54027 16.0603C3.96981 18.151 6.01288 19.4976 8.1036 19.0681L7.80172 17.5988C6.52249 17.8616 5.2724 17.0376 5.00958 15.7584L3.54027 16.0603ZM11.2803 3.57683C12.5595 3.31401 13.8096 4.13797 14.0724 5.41721L15.5417 5.11534C15.1122 3.02462 13.0691 1.67798 10.9784 2.10752L11.2803 3.57683ZM4.87657 3.36116C2.78585 3.7907 1.43921 5.83377 1.86875 7.92449L3.33806 7.62261C3.07524 6.34338 3.89921 5.09329 5.17844 4.83047L4.87657 3.36116Z" fill="#1C1D20"/>
</svg>
