<svg fill="none" viewBox="0 0 24 24" role="img">
  <g clip-path="url(#a)">
    <path stroke="#1C1D20" stroke-linecap="round" stroke-linejoin="round" stroke-width="1.5" d="M17 12.5v3.4c0 .56 0 .84-.109 1.054a1 1 0 0 1-.437.437c-.214.109-.494.109-1.054.109H3m10 0v3.4c0 .56 0 .84-.109 1.054a1 1 0 0 1-.437.437c-.214.109-.494.109-1.054.109H3M3 5v20m0-12.5h16.4c.56 0 .84 0 1.054-.109a1 1 0 0 0 .437-.437C21 11.74 21 11.46 21 10.9V9.1c0-.56 0-.84-.109-1.054a1 1 0 0 0-.437-.437C20.24 7.5 19.96 7.5 19.4 7.5H3v5Z"/>
  </g>
  <defs>
    <clipPath id="a">
      <path fill="#fff" d="M0 0h24v24H0z"/>
    </clipPath>
  </defs>
</svg>
