<svg fill="none" viewBox="0 0 24 24" role="img">
  <path stroke="#1C1D20" stroke-linecap="round" stroke-linejoin="round" stroke-width="1.5" d="M10.499 9.002a2.248 2.248 0 0 1 4.369.75C14.868 11.25 12.62 12 12.62 12m.029 3h.01m-.16 5a8.5 8.5 0 1 0-8.057-5.783c.108.32.162.481.172.604a.899.899 0 0 1-.028.326c-.03.12-.098.245-.232.494l-1.636 3.027c-.233.432-.35.648-.324.815a.5.5 0 0 0 .234.35c.144.087.388.062.876.011l5.121-.529a2.25 2.25 0 0 1 .304-.021.903.903 0 0 1 .186.024c.069.016.155.05.329.116a8.479 8.479 0 0 0 3.055.566Z"/>
</svg>
