<svg fill="none" viewBox="0 0 24 24" role="img">
  <path stroke="#1C1D20" stroke-linecap="round" stroke-linejoin="round" stroke-width="1.5" d="M14.393 18.014a3 3 0 1 1-5.796 1.553M10.893 5.74a2.5 2.5 0 1 0-3.47.93m8.815 2.775c-.357-1.332-1.31-2.446-2.65-3.097-1.339-.65-2.955-.785-4.492-.373-1.537.412-2.87 1.336-3.704 2.57-.834 1.232-1.102 2.674-.745 4.006.59 2.204.476 3.962.103 5.298-.426 1.523-.638 2.285-.58 2.437.065.175.113.223.287.29.152.06.792-.112 2.071-.454l11.866-3.18c1.279-.343 1.919-.514 2.021-.641.117-.146.134-.211.104-.395-.027-.162-.592-.715-1.721-1.821-.991-.97-1.97-2.436-2.56-4.64Z"/>
</svg>
