<svg fill="none" viewBox="0 0 24 24" role="img">
  <path fill="#1C1D20" d="m8.895 12.845-.75-.003v.003h.75Zm12.861.043-.75-.002v.002h.75Zm0 .073.75.014v-.014h-.75Zm-2.913 6.11.54.52.005-.004-.545-.515Zm-3.008 2.477-.407-.63a.755.755 0 0 0-.083.063l.49.567Zm-1.02 0 .491-.567a.735.735 0 0 0-.081-.062l-.41.629Zm-4.23-3.962.6-.45-.005-.006-.596.456Zm-1.69-4.72h-.75a.74.74 0 0 0 0 .026l.75-.026Zm-3.867-8.77-.151-.735.15.735Zm6.101-1.254.151.735-.15-.735ZM4.275 15.91l.735-.15-.735.15ZM2.603 7.774l.735-.151-.735.15Zm12.204-2.508-.735.151.735-.15ZM7.953 18.333l-.151-.734.15.734Zm1.692-5.486a5.68 5.68 0 0 1 5.7-5.661l.005-1.5a7.18 7.18 0 0 0-7.205 7.156l1.5.005Zm5.7-5.661a5.68 5.68 0 0 1 5.661 5.7l1.5.005a7.18 7.18 0 0 0-7.156-7.205l-.005 1.5Zm5.661 5.702v.073h1.5v-.073h-1.5Zm0 .059c-.038 2.043-1.188 4.005-2.707 5.609l1.088 1.031c1.642-1.732 3.07-4.037 3.12-6.612l-1.5-.028Zm-2.703 5.604a16.152 16.152 0 0 1-2.875 2.367l.814 1.26a17.653 17.653 0 0 0 3.141-2.586l-1.08-1.04Zm-2.958 2.43a.03.03 0 0 1-.039 0l-.981 1.134a1.53 1.53 0 0 0 2 0l-.98-1.134Zm-.12-.062a15.85 15.85 0 0 1-4.04-3.783l-1.201.9a17.347 17.347 0 0 0 4.422 4.14l.819-1.257Zm-4.045-3.79a7.48 7.48 0 0 1-1.536-4.288l-1.499.051a8.98 8.98 0 0 0 1.844 5.15l1.19-.912Zm-1.535-4.263v-.021h-1.5v.021h1.5Zm7.069.063c0 .765-.62 1.384-1.384 1.384v1.5a2.884 2.884 0 0 0 2.884-2.884h-1.5Zm-1.384 1.384c-.765 0-1.385-.62-1.385-1.384h-1.5a2.884 2.884 0 0 0 2.885 2.884v-1.5Zm-1.385-1.384c0-.764.62-1.384 1.385-1.384v-1.5a2.884 2.884 0 0 0-2.885 2.884h1.5Zm1.385-1.384c.764 0 1.384.62 1.384 1.384h1.5a2.884 2.884 0 0 0-2.884-2.884v1.5ZM5.178 4.83l6.102-1.253-.302-1.47-6.101 1.254.301 1.47ZM5.01 15.758 3.338 7.623l-1.47.301L3.54 16.06l1.47-.302Zm9.062-10.34.243 1.18 1.47-.301-.243-1.182-1.47.302Zm-3.464 11.604-2.806.577.302 1.47 2.806-.578-.302-1.469ZM3.54 16.06a3.865 3.865 0 0 0 4.564 3.008l-.302-1.47a2.365 2.365 0 0 1-2.792-1.84l-1.47.302Zm7.74-12.483a2.365 2.365 0 0 1 2.792 1.84l1.47-.302a3.865 3.865 0 0 0-4.564-3.007l.302 1.469ZM4.877 3.36a3.865 3.865 0 0 0-3.008 4.563l1.47-.301a2.365 2.365 0 0 1 1.84-2.793L4.877 3.36Z"/>
</svg>
